<svg width="150" height="150" viewBox="0 0 150 150" fill="none" xmlns="http://www.w3.org/2000/svg">
<circle cx="75" cy="75" r="75" fill="white"/>
<path d="M44.1 44H74C83.2667 44 90.2 45.2667 94.8 47.8C99.4667 50.2667 101.8 54.4667 101.8 60.4C101.8 69.5333 96.3 75 85.3 76.8V77C98.6333 78.6667 105.3 84.4667 105.3 94.4C105.3 101.667 102.567 106.767 97.1 109.7C91.6333 112.567 83.7667 114 73.5 114H44.1V112.1H50.6V45.9H44.1V44ZM70.1 78.6V112.1H74.8C78.4667 112.1 81.0333 110.833 82.5 108.3C83.9667 105.767 84.7 102.033 84.7 97.1V91.8C84.7 87.4 83.8 84.1 82 81.9C80.2 79.7 77 78.6 72.4 78.6H70.1ZM70.1 45.9V76.7H72.7C76.1667 76.7 78.5667 75.6667 79.9 73.6C81.3 71.4667 82 68.2333 82 63.9V59.2C82 54.2667 81.4 50.8333 80.2 48.9C79 46.9 76.7 45.9 73.3 45.9H70.1Z" fill="#F33451"/>
</svg>
