<svg width="17" height="17" viewBox="0 0 17 17" fill="none" xmlns="http://www.w3.org/2000/svg">
<path d="M13.5628 12.9997C13.6019 13.0362 13.6333 13.0802 13.6551 13.129C13.6769 13.1779 13.6886 13.2307 13.6895 13.2842C13.6905 13.3377 13.6806 13.3908 13.6606 13.4404C13.6405 13.49 13.6107 13.5351 13.5729 13.5729C13.535 13.6108 13.49 13.6406 13.4404 13.6606C13.3907 13.6807 13.3376 13.6905 13.2841 13.6896C13.2306 13.6886 13.1778 13.6769 13.129 13.6551C13.0801 13.6334 13.0361 13.602 12.9996 13.5628L8.49995 9.0638L4.00026 13.5628C3.92473 13.6332 3.82483 13.6715 3.72161 13.6697C3.61839 13.6679 3.5199 13.6261 3.4469 13.5531C3.3739 13.4801 3.33208 13.3816 3.33026 13.2784C3.32844 13.1751 3.36676 13.0752 3.43714 12.9997L7.93616 8.50001L3.43714 4.00032C3.36676 3.92479 3.32844 3.82489 3.33026 3.72167C3.33208 3.61845 3.3739 3.51996 3.4469 3.44696C3.5199 3.37396 3.61839 3.33214 3.72161 3.33032C3.82483 3.3285 3.92473 3.36682 4.00026 3.4372L8.49995 7.93622L12.9996 3.4372C13.0752 3.36682 13.1751 3.3285 13.2783 3.33032C13.3815 3.33214 13.48 3.37396 13.553 3.44696C13.626 3.51996 13.6678 3.61845 13.6696 3.72167C13.6715 3.82489 13.6331 3.92479 13.5628 4.00032L9.06374 8.50001L13.5628 12.9997Z" fill="white"/>
</svg>
