<svg width="71" height="40" viewBox="0 0 71 40" fill="none" xmlns="http://www.w3.org/2000/svg">
<path d="M52.6922 20.4422L40.1922 32.9422C40.1341 33.0003 40.0652 33.0463 39.9893 33.0777C39.9134 33.1092 39.8321 33.1253 39.75 33.1253C39.6679 33.1253 39.5865 33.1092 39.5107 33.0777C39.4348 33.0463 39.3659 33.0003 39.3078 32.9422C39.2497 32.8841 39.2037 32.8152 39.1722 32.7393C39.1408 32.6634 39.1246 32.5821 39.1246 32.5C39.1246 32.4179 39.1408 32.3366 39.1722 32.2607C39.2037 32.1848 39.2497 32.1159 39.3078 32.0578L51.3656 20L39.3078 7.94219C39.1905 7.82491 39.1246 7.66585 39.1246 7.5C39.1246 7.33415 39.1905 7.17509 39.3078 7.05781C39.4251 6.94054 39.5841 6.87465 39.75 6.87465C39.9158 6.87465 40.0749 6.94054 40.1922 7.05781L52.6922 19.5578C52.7503 19.6159 52.7964 19.6848 52.8278 19.7607C52.8593 19.8365 52.8755 19.9179 52.8755 20C52.8755 20.0821 52.8593 20.1635 52.8278 20.2393C52.7964 20.3152 52.7503 20.3841 52.6922 20.4422ZM65.1922 19.5578L52.6922 7.05781C52.5749 6.94054 52.4158 6.87465 52.25 6.87465C52.0841 6.87465 51.9251 6.94054 51.8078 7.05781C51.6905 7.17509 51.6246 7.33415 51.6246 7.5C51.6246 7.66585 51.6905 7.82491 51.8078 7.94219L63.8656 20L51.8078 32.0578C51.7497 32.1159 51.7037 32.1848 51.6722 32.2607C51.6408 32.3366 51.6246 32.4179 51.6246 32.5C51.6246 32.5821 51.6408 32.6634 51.6722 32.7393C51.7037 32.8152 51.7497 32.8841 51.8078 32.9422C51.8659 33.0003 51.9348 33.0463 52.0107 33.0777C52.0865 33.1092 52.1679 33.1253 52.25 33.1253C52.3321 33.1253 52.4134 33.1092 52.4893 33.0777C52.5652 33.0463 52.6341 33.0003 52.6922 32.9422L65.1922 20.4422C65.2503 20.3841 65.2964 20.3152 65.3278 20.2393C65.3593 20.1635 65.3755 20.0821 65.3755 20C65.3755 19.9179 65.3593 19.8365 65.3278 19.7607C65.2964 19.6848 65.2503 19.6159 65.1922 19.5578Z" fill="white"/>
<path d="M7.95597 16.2727V25H7.1804L2.02415 17.6918H1.95597V25H1.15909V16.2727H1.9304L7.10369 23.5895H7.17188V16.2727H7.95597ZM10.2763 25V16.2727H15.3388V16.9886H11.0732V20.2741H15.0703V20.9901H11.0732V24.2841H15.424V25H10.2763ZM17.5376 16.2727L19.9538 20.0611H20.0092L22.4254 16.2727H23.3672L20.5589 20.6364L23.3672 25H22.4254L20.0092 21.2543H19.9538L17.5376 25H16.5959L19.4467 20.6364L16.5959 16.2727H17.5376ZM24.3494 16.9886V16.2727H30.6776V16.9886H27.9119V25H27.1151V16.9886H24.3494Z" fill="white"/>
</svg>
