<svg width="71" height="40" viewBox="0 0 71 40" fill="none" xmlns="http://www.w3.org/2000/svg">
<path d="M31.6922 32.0578C31.8095 32.1751 31.8754 32.3341 31.8754 32.5C31.8754 32.6659 31.8095 32.8249 31.6922 32.9422C31.5749 33.0595 31.4159 33.1253 31.25 33.1253C31.0842 33.1253 30.9251 33.0595 30.8078 32.9422L18.3078 20.4422C18.2497 20.3841 18.2036 20.3152 18.1722 20.2393C18.1407 20.1635 18.1245 20.0821 18.1245 20C18.1245 19.9179 18.1407 19.8365 18.1722 19.7607C18.2036 19.6848 18.2497 19.6159 18.3078 19.5578L30.8078 7.05781C30.8659 6.99974 30.9348 6.95368 31.0107 6.92225C31.0866 6.89083 31.1679 6.87465 31.25 6.87465C31.3321 6.87465 31.4134 6.89083 31.4893 6.92225C31.5652 6.95368 31.6341 6.99974 31.6922 7.05781C31.7503 7.11588 31.7963 7.18482 31.8277 7.26069C31.8592 7.33656 31.8754 7.41788 31.8754 7.5C31.8754 7.58212 31.8592 7.66344 31.8277 7.73931C31.7963 7.81518 31.7503 7.88412 31.6922 7.94219L19.6344 20L31.6922 32.0578ZM7.13438 20L19.1922 7.94219C19.3095 7.82491 19.3754 7.66585 19.3754 7.5C19.3754 7.33415 19.3095 7.17509 19.1922 7.05781C19.0749 6.94054 18.9159 6.87465 18.75 6.87465C18.5842 6.87465 18.4251 6.94054 18.3078 7.05781L5.80782 19.5578C5.74971 19.6159 5.70361 19.6848 5.67215 19.7607C5.6407 19.8365 5.62451 19.9179 5.62451 20C5.62451 20.0821 5.6407 20.1635 5.67215 20.2393C5.70361 20.3152 5.74971 20.3841 5.80782 20.4422L18.3078 32.9422C18.3659 33.0003 18.4348 33.0463 18.5107 33.0777C18.5866 33.1092 18.6679 33.1253 18.75 33.1253C18.8321 33.1253 18.9134 33.1092 18.9893 33.0777C19.0652 33.0463 19.1341 33.0003 19.1922 32.9422C19.2503 32.8841 19.2963 32.8152 19.3277 32.7393C19.3592 32.6634 19.3754 32.5821 19.3754 32.5C19.3754 32.4179 19.3592 32.3366 19.3277 32.2607C19.2963 32.1848 19.2503 32.1159 19.1922 32.0578L7.13438 20Z" fill="white"/>
<path d="M41.1591 24V15.2727H43.9759C44.5952 15.2727 45.1122 15.392 45.527 15.6307C45.9446 15.8665 46.2585 16.1875 46.4688 16.5938C46.6818 17 46.7884 17.4574 46.7884 17.9659C46.7884 18.4744 46.6832 18.9332 46.473 19.3423C46.2628 19.7486 45.9503 20.071 45.5355 20.3097C45.1207 20.5455 44.6051 20.6634 43.9886 20.6634H41.7727V19.9474H43.9673C44.4247 19.9474 44.804 19.8622 45.1051 19.6918C45.4063 19.5185 45.6307 19.2827 45.7784 18.9844C45.929 18.6861 46.0043 18.3466 46.0043 17.9659C46.0043 17.5852 45.929 17.2457 45.7784 16.9474C45.6307 16.6491 45.4048 16.4148 45.1009 16.2443C44.7997 16.0739 44.4176 15.9886 43.9545 15.9886H41.956V24H41.1591ZM48.6591 24V15.2727H51.4759C52.0952 15.2727 52.6122 15.3849 53.027 15.6094C53.4446 15.831 53.7585 16.1392 53.9688 16.5341C54.1818 16.9261 54.2884 17.3764 54.2884 17.8849C54.2884 18.3935 54.1818 18.8423 53.9688 19.2315C53.7585 19.6207 53.446 19.9247 53.0312 20.1435C52.6165 20.3622 52.1023 20.4716 51.4886 20.4716H49.0895V19.7429H51.4673C51.9219 19.7429 52.2997 19.6676 52.6009 19.517C52.9048 19.3665 53.1307 19.152 53.2784 18.8736C53.429 18.5952 53.5043 18.2656 53.5043 17.8849C53.5043 17.5043 53.429 17.1719 53.2784 16.8878C53.1278 16.6009 52.9006 16.3793 52.5966 16.223C52.2955 16.0668 51.9148 15.9886 51.4545 15.9886H49.456V24H48.6591ZM52.5071 20.0625L54.6548 24H53.7344L51.608 20.0625H52.5071ZM56.2294 24V15.2727H61.2919V15.9886H57.0263V19.2741H61.0234V19.9901H57.0263V23.2841H61.3771V24H56.2294ZM63.3672 15.2727L66.0945 22.9645H66.1712L68.8984 15.2727H69.7337L66.5589 24H65.7067L62.532 15.2727H63.3672Z" fill="white"/>
</svg>
