<svg width="12" height="22" viewBox="0 0 12 22" fill="none" xmlns="http://www.w3.org/2000/svg">
<path d="M11.7075 11.7075L1.70751 21.7075C1.6146 21.8004 1.5043 21.8741 1.3829 21.9244C1.26151 21.9747 1.1314 22.0006 1.00001 22.0006C0.868612 22.0006 0.738503 21.9747 0.61711 21.9244C0.495717 21.8741 0.385416 21.8004 0.292506 21.7075C0.199596 21.6146 0.125896 21.5043 0.075613 21.3829C0.0253304 21.2615 -0.000549316 21.1314 -0.000549316 21C-0.000549316 20.8686 0.0253304 20.7385 0.075613 20.6171C0.125896 20.4957 0.199596 20.3854 0.292506 20.2925L9.58626 11L0.292506 1.70751C0.104866 1.51987 -0.000549318 1.26537 -0.000549316 1.00001C-0.000549314 0.734643 0.104866 0.480147 0.292506 0.292507C0.480147 0.104866 0.734643 -0.000549314 1.00001 -0.000549316C1.26537 -0.000549318 1.51987 0.104866 1.70751 0.292507L11.7075 10.2925C11.8005 10.3854 11.8742 10.4957 11.9246 10.6171C11.9749 10.7385 12.0008 10.8686 12.0008 11C12.0008 11.1314 11.9749 11.2615 11.9246 11.3829C11.8742 11.5043 11.8005 11.6146 11.7075 11.7075Z" fill="#343330"/>
</svg>
