<svg width="45" height="45" viewBox="0 0 45 45" fill="none" xmlns="http://www.w3.org/2000/svg">
<circle cx="22.5" cy="22.5" r="22.5" fill="#D79494" fill-opacity="0.53"/>
<path d="M35.1109 23.4306L25.2672 30.7431C25.1117 30.8507 24.906 30.9093 24.6935 30.9065C24.481 30.9037 24.2782 30.8398 24.1279 30.7281C23.9776 30.6165 23.8915 30.4659 23.8878 30.308C23.884 30.1501 23.9629 29.9973 24.1078 29.8818L32.5502 23.6093H10.4688C10.2512 23.6093 10.0425 23.5451 9.8887 23.4308C9.73486 23.3166 9.64844 23.1616 9.64844 22.9999C9.64844 22.8383 9.73486 22.6833 9.8887 22.569C10.0425 22.4548 10.2512 22.3906 10.4688 22.3906H32.5502L24.1078 16.1181C23.9629 16.0025 23.884 15.8498 23.8878 15.6919C23.8915 15.534 23.9776 15.3834 24.1279 15.2717C24.2782 15.1601 24.481 15.0961 24.6935 15.0934C24.906 15.0906 25.1117 15.1492 25.2672 15.2568L35.1109 22.5693C35.2646 22.6836 35.3508 22.8385 35.3508 22.9999C35.3508 23.1614 35.2646 23.3163 35.1109 23.4306Z" fill="white"/>
</svg>
