<svg width="12" height="22" viewBox="0 0 12 22" fill="none" xmlns="http://www.w3.org/2000/svg">
<path d="M11.7075 20.2925C11.8004 20.3854 11.8741 20.4957 11.9244 20.6171C11.9747 20.7385 12.0006 20.8686 12.0006 21C12.0006 21.1314 11.9747 21.2615 11.9244 21.3829C11.8741 21.5043 11.8004 21.6146 11.7075 21.7075C11.6146 21.8004 11.5043 21.8741 11.3829 21.9244C11.2615 21.9747 11.1314 22.0006 11 22.0006C10.8686 22.0006 10.7385 21.9747 10.6171 21.9244C10.4957 21.8741 10.3854 21.8004 10.2925 21.7075L0.292493 11.7075C0.199516 11.6146 0.125758 11.5043 0.0754337 11.3829C0.0251094 11.2615 -0.000793457 11.1314 -0.000793457 11C-0.000793457 10.8686 0.0251094 10.7385 0.0754337 10.6171C0.125758 10.4957 0.199516 10.3854 0.292493 10.2925L10.2925 0.292507C10.4801 0.104866 10.7346 -0.000549322 11 -0.000549316C11.2654 -0.000549311 11.5199 0.104866 11.7075 0.292507C11.8951 0.480147 12.0006 0.734643 12.0006 1.00001C12.0006 1.26537 11.8951 1.51987 11.7075 1.70751L2.41374 11L11.7075 20.2925Z" fill="#343330"/>
</svg>
